<mxfile host="Electron" agent="Mozilla/5.0 (X11; Linux x86_64) AppleWebKit/537.36 (KHTML, like Gecko) draw.io/24.7.17 Chrome/128.0.6613.36 Electron/32.0.1 Safari/537.36" version="24.7.17">
  <diagram name="Page-1" id="7FTN3sYe4GUqcMc4w6tx">
    <mxGraphModel dx="2183" dy="1380" grid="0" gridSize="10" guides="1" tooltips="1" connect="1" arrows="1" fold="1" page="0" pageScale="1" pageWidth="850" pageHeight="1100" math="0" shadow="0">
      <root>
        <mxCell id="0" />
        <mxCell id="1" parent="0" />
        <mxCell id="qUIIW65uYC-7S8HYYNr7-1" value="&lt;font style=&quot;font-size: 13px;&quot;&gt;Módulo de Cadastro e Gerenciamento de Usuários&lt;/font&gt;" style="swimlane;whiteSpace=wrap;html=1;startSize=30;" vertex="1" parent="1">
          <mxGeometry x="-874" y="-436" width="336" height="350" as="geometry" />
        </mxCell>
        <mxCell id="qUIIW65uYC-7S8HYYNr7-2" value="UC-01&lt;br style=&quot;font-size: 14px;&quot;&gt;Cadastrar Usuário" style="ellipse;whiteSpace=wrap;html=1;fontSize=14;fontStyle=0" vertex="1" parent="qUIIW65uYC-7S8HYYNr7-1">
          <mxGeometry x="80.5" y="69" width="175" height="87" as="geometry" />
        </mxCell>
        <mxCell id="qUIIW65uYC-7S8HYYNr7-3" value="UC-02&lt;br style=&quot;font-size: 14px;&quot;&gt;Promover Usuário" style="ellipse;whiteSpace=wrap;html=1;fontSize=14;fontStyle=0" vertex="1" parent="qUIIW65uYC-7S8HYYNr7-1">
          <mxGeometry x="80.5" y="203" width="175" height="87" as="geometry" />
        </mxCell>
        <mxCell id="qUIIW65uYC-7S8HYYNr7-20" style="edgeStyle=none;shape=connector;curved=0;rounded=1;orthogonalLoop=1;jettySize=auto;html=1;entryX=1;entryY=0.5;entryDx=0;entryDy=0;strokeColor=default;align=center;verticalAlign=middle;fontFamily=Helvetica;fontSize=12;fontColor=default;labelBackgroundColor=default;startSize=8;endArrow=classic;endSize=8;" edge="1" parent="1" source="qUIIW65uYC-7S8HYYNr7-4" target="qUIIW65uYC-7S8HYYNr7-2">
          <mxGeometry relative="1" as="geometry">
            <Array as="points">
              <mxPoint x="-564" y="-266" />
              <mxPoint x="-565" y="-323" />
            </Array>
          </mxGeometry>
        </mxCell>
        <mxCell id="qUIIW65uYC-7S8HYYNr7-21" style="edgeStyle=none;shape=connector;curved=0;rounded=1;orthogonalLoop=1;jettySize=auto;html=1;entryX=1;entryY=0.5;entryDx=0;entryDy=0;strokeColor=default;align=center;verticalAlign=middle;fontFamily=Helvetica;fontSize=12;fontColor=default;labelBackgroundColor=default;startSize=8;endArrow=classic;endSize=8;" edge="1" parent="1" source="qUIIW65uYC-7S8HYYNr7-4" target="qUIIW65uYC-7S8HYYNr7-3">
          <mxGeometry relative="1" as="geometry">
            <Array as="points">
              <mxPoint x="-564" y="-266" />
              <mxPoint x="-564" y="-189" />
            </Array>
          </mxGeometry>
        </mxCell>
        <mxCell id="qUIIW65uYC-7S8HYYNr7-4" value="Usuário Master" style="shape=umlActor;verticalLabelPosition=bottom;verticalAlign=top;html=1;outlineConnect=0;" vertex="1" parent="1">
          <mxGeometry x="-466" y="-295" width="30" height="60" as="geometry" />
        </mxCell>
        <mxCell id="qUIIW65uYC-7S8HYYNr7-16" style="edgeStyle=none;curved=0;rounded=1;orthogonalLoop=1;jettySize=auto;html=1;entryX=0;entryY=0.5;entryDx=0;entryDy=0;fontSize=12;startSize=8;endSize=8;strokeColor=default;" edge="1" parent="1" source="qUIIW65uYC-7S8HYYNr7-9" target="qUIIW65uYC-7S8HYYNr7-2">
          <mxGeometry relative="1" as="geometry">
            <Array as="points">
              <mxPoint x="-849" y="-265" />
              <mxPoint x="-847" y="-323" />
            </Array>
          </mxGeometry>
        </mxCell>
        <mxCell id="qUIIW65uYC-7S8HYYNr7-17" style="edgeStyle=none;shape=connector;curved=0;rounded=1;orthogonalLoop=1;jettySize=auto;html=1;entryX=0;entryY=0.5;entryDx=0;entryDy=0;strokeColor=default;align=center;verticalAlign=middle;fontFamily=Helvetica;fontSize=12;fontColor=default;labelBackgroundColor=default;startSize=8;endArrow=classic;endSize=8;" edge="1" parent="1" source="qUIIW65uYC-7S8HYYNr7-9" target="qUIIW65uYC-7S8HYYNr7-3">
          <mxGeometry relative="1" as="geometry">
            <Array as="points">
              <mxPoint x="-849" y="-265" />
              <mxPoint x="-848" y="-190" />
            </Array>
          </mxGeometry>
        </mxCell>
        <mxCell id="qUIIW65uYC-7S8HYYNr7-9" value="Usuário Admin" style="shape=umlActor;verticalLabelPosition=bottom;verticalAlign=top;html=1;outlineConnect=0;" vertex="1" parent="1">
          <mxGeometry x="-974" y="-295" width="30" height="60" as="geometry" />
        </mxCell>
      </root>
    </mxGraphModel>
  </diagram>
</mxfile>
